<?xml version="1.0" standalone="no"?>
<!DOCTYPE svg PUBLIC "-//W3C//DTD SVG 20010904//EN"
 "http://www.w3.org/TR/2001/REC-SVG-20010904/DTD/svg10.dtd">
<svg version="1.0" xmlns="http://www.w3.org/2000/svg"
 width="548.000000pt" height="548.000000pt" viewBox="0 0 548.000000 548.000000"
 preserveAspectRatio="xMidYMid meet">
<metadata>
Created by potrace 1.14, written by Peter Selinger 2001-2017
</metadata>
<g transform="translate(0.000000,548.000000) scale(0.100000,-0.100000)"
fill="#000000" stroke="none">
<path d="M0 3440 l0 -1220 35 0 35 0 0 1130 0 1130 2670 0 2670 0 0 -1130 0
-1130 35 0 35 0 0 1220 0 1220 -2740 0 -2740 0 0 -1220z"/>
<path d="M222 4332 c-10 -7 -12 -346 -10 -1663 l3 -1654 2505 -3 c1378 -1
2515 0 2528 3 l22 5 0 1654 c0 1499 -1 1654 -16 1660 -24 9 -5017 7 -5032 -2z
m1824 -344 c9 -32 11 -33 79 -40 39 -3 168 -12 288 -19 212 -12 218 -13 223
-35 8 -33 33 -38 40 -9 3 14 4 31 1 39 -3 7 1 23 9 34 11 17 19 19 41 11 16
-4 40 -11 56 -14 21 -4 27 -11 27 -33 0 -60 47 -244 77 -302 7 -14 13 -33 13
-42 0 -10 4 -18 8 -18 5 0 14 -18 21 -39 6 -22 25 -53 41 -70 32 -32 39 -68
15 -77 -17 -7 -19 -27 -5 -52 16 -30 47 -105 65 -162 10 -30 26 -65 35 -77
l17 -22 11 22 c6 12 23 63 38 112 15 50 31 97 35 105 7 13 55 158 105 315 8
28 19 57 23 65 5 9 12 31 16 50 4 19 12 41 18 48 14 18 -19 41 -59 42 -17 0
-46 3 -63 6 -30 6 -31 9 -31 55 l0 49 618 0 619 0 9 -170 9 -170 -80 0 -81 0
-11 33 c-6 17 -14 59 -18 92 -13 116 7 105 -186 105 l-169 0 -2 -212 c0 -117
-2 -220 -2 -228 -3 -25 15 -30 117 -30 70 0 99 4 101 13 2 6 10 41 18 77 l13
65 53 3 52 3 0 -221 0 -221 -52 3 -53 3 -15 78 -15 78 -110 -3 -110 -3 4 -250
c2 -137 5 -253 8 -257 2 -5 87 -8 187 -8 l184 0 11 68 c7 37 15 89 20 115 4
27 13 52 20 57 7 4 43 7 79 6 l67 -1 0 -160 c0 -88 -4 -168 -7 -178 -7 -16
-39 -17 -530 -15 l-523 3 -3 53 c-3 48 -1 52 20 52 12 0 46 6 75 12 l53 13 0
537 c0 349 -4 539 -10 543 -6 3 -26 1 -45 -6 -27 -10 -37 -21 -45 -49 -5 -19
-10 -41 -10 -47 0 -7 -4 -13 -9 -13 -5 0 -12 -18 -16 -40 -4 -22 -10 -42 -15
-45 -5 -3 -11 -23 -15 -45 -4 -22 -11 -42 -15 -45 -5 -3 -14 -30 -21 -61 -7
-30 -16 -57 -21 -60 -4 -3 -8 -12 -8 -21 0 -8 -6 -29 -14 -46 -8 -18 -21 -54
-30 -82 -9 -27 -28 -84 -41 -125 -14 -41 -29 -82 -34 -90 -5 -9 -12 -31 -16
-50 -4 -19 -11 -39 -15 -45 -4 -5 -12 -28 -18 -50 -15 -57 -42 -135 -58 -172
-8 -17 -14 -38 -14 -46 0 -9 -4 -19 -10 -22 -5 -3 -10 -13 -10 -21 0 -8 -10
-24 -21 -35 -16 -16 -23 -18 -29 -9 -6 10 -20 11 -70 1 -68 -14 -92 -5 -83 29
8 31 -34 107 -69 125 -17 8 -37 15 -43 15 -14 0 -25 31 -25 71 0 29 -34 79
-55 79 -15 0 -29 44 -15 48 6 2 10 16 9 30 0 15 -3 21 -6 15 -9 -24 -32 -13
-63 31 -16 25 -30 48 -30 51 0 4 -7 22 -16 40 -17 36 -17 35 24 80 11 12 11
17 0 28 -11 12 -14 11 -23 -6 -12 -25 -35 -34 -35 -14 0 9 -5 17 -12 19 -8 3
-5 28 11 87 24 88 23 190 -2 209 -7 5 -39 6 -72 3 l-60 -6 0 -394 0 -395 50
-13 c28 -7 63 -13 78 -13 28 0 28 -1 25 -52 l-3 -53 -317 -3 -318 -2 0 53 0
52 67 13 c37 7 69 15 72 18 8 7 14 719 7 758 -7 34 -9 36 -45 36 -21 0 -53 3
-70 6 -30 6 -31 8 -31 60 l0 54 240 0 c254 0 267 3 220 45 -11 10 -22 25 -25
34 -7 23 -78 61 -114 61 -21 0 -32 -6 -36 -20 -4 -12 -15 -20 -28 -20 -12 0
-31 -7 -42 -16 -18 -13 -43 -21 -117 -38 -23 -5 -27 -3 -30 21 -2 18 -12 32
-29 40 -14 7 -37 23 -50 35 -14 13 -47 34 -74 47 -46 23 -55 24 -180 18 l-132
-6 7 39 c6 34 4 44 -16 66 -24 25 -30 45 -17 57 3 4 131 7 283 7 l277 0 9 -32z
m-646 -108 c0 -56 -2 -58 -100 -62 l-55 -3 0 -550 0 -550 162 -2 c134 -2 164
1 174 13 7 9 19 48 26 87 7 40 17 98 24 130 l11 57 80 0 81 0 -7 -112 c-4 -62
-10 -151 -14 -198 l-7 -85 -510 0 -510 0 -3 53 c-3 48 -1 52 20 52 12 0 46 6
75 12 l53 13 -2 540 -3 540 -50 3 c-92 4 -95 6 -95 62 l0 50 325 0 325 0 0
-50z m661 -1368 c146 -70 228 -216 229 -404 0 -149 -41 -260 -130 -348 -31
-31 -53 -44 -154 -91 -35 -17 -202 -19 -237 -3 -128 57 -174 94 -226 180 -43
71 -57 132 -57 254 0 160 31 247 120 337 82 84 164 114 299 109 77 -3 101 -8
156 -34z m977 7 l59 -23 7 -65 c3 -37 6 -83 6 -103 l0 -38 -45 0 c-52 0 -60
10 -70 90 -11 86 -21 95 -117 95 -56 0 -83 -4 -85 -12 -3 -7 -11 -13 -18 -13
-17 0 -85 -68 -85 -86 0 -8 -4 -14 -9 -14 -5 0 -13 -15 -16 -32 -4 -18 -13
-36 -19 -40 -7 -5 -11 -62 -11 -178 0 -116 4 -173 11 -178 6 -4 15 -22 19 -39
3 -18 11 -33 16 -33 5 0 9 -6 9 -13 0 -24 75 -85 125 -102 52 -17 102 -15 150
7 17 8 26 22 31 47 3 20 11 52 16 71 6 19 12 41 14 48 3 9 18 12 46 10 l43 -3
3 -97 3 -97 -45 -21 c-25 -11 -51 -20 -58 -20 -8 0 -19 -5 -26 -12 -16 -16
-263 -18 -283 -2 -8 6 -27 14 -43 18 -39 10 -124 67 -161 109 -92 104 -127
285 -86 442 37 142 121 236 253 284 76 28 91 30 205 26 76 -2 116 -8 161 -26z
m-1870 -23 c4 -35 -10 -46 -60 -46 l-38 0 0 -350 0 -350 110 0 c80 0 112 3
114 13 3 6 10 46 18 87 l13 75 48 3 47 3 0 -73 c0 -40 -3 -97 -6 -125 l-7 -53
-323 0 -324 0 0 34 c0 34 1 35 43 38 l42 3 3 347 2 347 -42 3 c-42 3 -43 4
-46 41 l-3 37 203 -2 203 -3 3 -29z m2514 -51 c16 -44 34 -98 40 -120 6 -22
14 -44 18 -50 4 -5 11 -26 15 -45 4 -19 11 -39 15 -45 4 -5 19 -50 34 -100 15
-49 34 -104 42 -122 8 -17 14 -40 14 -50 0 -11 3 -23 8 -27 4 -4 16 -35 27
-69 19 -58 22 -62 55 -67 31 -4 35 -9 38 -37 l3 -33 -195 0 c-187 0 -196 1
-196 19 0 40 11 51 51 51 47 0 49 13 18 107 l-22 63 -128 0 c-146 0 -137 5
-163 -95 -17 -67 -13 -75 42 -75 30 0 32 -2 32 -35 l0 -35 -135 0 -135 0 0 35
c0 34 1 35 40 35 50 0 74 25 91 94 7 28 16 58 20 66 5 8 27 71 49 140 22 69
44 132 49 140 5 9 12 31 16 50 4 19 11 40 15 45 4 6 11 26 15 45 4 19 11 40
15 45 5 6 13 30 20 55 25 99 27 101 99 98 l64 -3 29 -80z m783 77 c16 -11 17
-49 3 -58 -7 -5 -33 -11 -58 -14 l-45 -5 -3 -347 -2 -348 113 0 113 0 11 43
c6 23 15 62 20 87 l8 45 48 3 47 3 0 -110 c0 -60 -3 -116 -6 -125 -5 -14 -44
-16 -335 -16 l-329 0 0 34 c0 34 1 35 48 38 l47 3 3 348 2 347 -34 0 c-51 0
-66 9 -66 39 0 15 3 31 7 34 9 9 396 9 408 -1z m-3649 -957 c14 -13 12 -15
-15 -15 -40 0 -40 -22 -1 -37 23 -9 30 -18 30 -37 0 -35 -39 -54 -76 -38 -33
16 -24 30 16 24 23 -3 30 0 30 12 0 9 -7 16 -16 16 -20 0 -44 24 -44 45 0 39
48 58 76 30z m1324 1 c10 -13 7 -15 -16 -13 -41 3 -42 -25 -1 -43 42 -19 47
-52 12 -68 -19 -9 -32 -9 -46 -2 -28 16 -23 19 16 13 30 -5 35 -3 35 13 0 11
-14 26 -33 35 -38 19 -46 45 -20 64 23 18 38 18 53 1z m838 -4 c34 -26 35 -87
2 -113 -60 -46 -142 34 -96 94 7 9 18 17 25 17 6 0 11 5 11 10 0 16 33 11 58
-8z m422 9 c0 -5 6 -11 13 -14 6 -2 -1 -2 -16 0 -18 3 -35 -2 -48 -13 -43 -39
-7 -102 52 -89 38 8 32 -9 -6 -19 -16 -4 -34 0 -50 10 -35 23 -36 94 -2 117
25 18 57 22 57 8z m-2420 -16 c7 -8 10 -22 6 -30 -3 -9 0 -24 6 -35 18 -28 -6
-50 -53 -50 l-39 0 0 65 0 65 34 0 c18 0 39 -7 46 -15z m720 -15 c0 -33 7 -37
35 -17 17 13 17 15 -6 30 -16 12 -19 17 -8 17 8 0 24 -6 35 -14 14 -11 16 -18
8 -26 -9 -9 -9 -19 0 -41 13 -36 -1 -49 -51 -49 l-33 0 0 65 c0 37 4 65 10 65
6 0 10 -13 10 -30z m191 -1 c22 34 31 24 12 -11 -10 -18 -21 -46 -24 -63 l-6
-30 -2 33 c0 19 -10 45 -21 59 -28 36 -24 54 4 19 l24 -29 13 22z m413 19 c-3
-5 -15 -8 -27 -6 -31 4 -35 -29 -5 -42 l23 -9 -22 -7 c-13 -3 -23 -14 -23 -25
0 -13 9 -19 38 -22 34 -3 33 -4 -10 -5 l-48 -2 0 65 0 66 39 -3 c22 -1 37 -6
35 -10z m138 -37 c34 -51 46 -50 51 6 3 41 4 38 5 -19 2 -55 -1 -68 -13 -68
-8 0 -15 4 -15 8 0 8 -13 26 -52 72 -11 12 -14 7 -19 -35 -6 -49 -6 -49 -7 18
-2 77 8 80 50 18z m203 16 c23 -49 35 -97 24 -97 -5 0 -9 7 -9 15 0 16 -43 31
-59 20 -6 -3 -11 -13 -11 -21 0 -8 -7 -14 -15 -14 -15 0 -13 13 12 60 7 14 13
30 13 36 0 9 20 34 27 34 1 0 9 -15 18 -33z m158 23 c-20 -8 -23 -17 -23 -65
0 -30 -4 -55 -10 -55 -5 0 -10 25 -10 55 0 48 -3 57 -22 65 -18 7 -11 9 32 9
43 0 50 -2 33 -9z m351 -6 c19 -18 19 -20 6 -44 -7 -12 -7 -28 0 -44 13 -34
-6 -35 -22 -1 -6 14 -17 25 -25 25 -7 0 -13 -11 -13 -25 0 -14 -4 -25 -10 -25
-11 0 -14 113 -3 123 12 13 51 7 67 -9z m442 -81 c13 -37 6 -44 -14 -13 -14
23 -62 28 -62 6 0 -8 -7 -17 -16 -20 -12 -5 -14 -1 -9 17 4 12 11 26 16 32 5
5 9 17 9 26 0 10 8 25 17 35 16 16 18 15 32 -17 8 -19 20 -49 27 -66z m132
-26 c33 -3 32 -4 -10 -5 l-48 -2 0 58 c0 79 14 89 18 13 l3 -60 37 -4z m197
20 c5 -32 5 -32 -11 -9 -18 24 -64 30 -64 8 0 -8 -7 -17 -16 -20 -12 -5 -14
-1 -9 17 4 12 11 26 16 32 5 5 9 17 9 26 0 10 7 25 17 34 15 16 17 14 34 -19
10 -20 20 -51 24 -69z m130 94 c-16 -6 -21 -20 -26 -67 l-6 -59 -1 56 c-2 47
-5 58 -24 67 -20 9 -16 11 27 11 34 0 44 -3 30 -8z m135 -22 c0 -10 4 -19 9
-19 5 0 13 -18 19 -40 11 -43 4 -52 -16 -20 -16 26 -47 25 -66 -2 -24 -34 -27
-17 -5 31 10 24 19 49 19 56 0 14 20 25 33 18 4 -2 7 -13 7 -24z m295 -84 c30
0 30 1 33 58 4 69 22 67 22 -3 0 -39 -4 -52 -22 -64 -27 -19 -39 -20 -61 -3
-19 13 -33 90 -20 116 4 10 9 -6 13 -44 5 -59 6 -60 35 -60z m228 96 c13 -13
16 -86 4 -97 -3 -4 -29 -9 -57 -12 l-50 -5 0 60 c0 33 3 63 8 67 10 11 82 0
95 -13z m-3513 -41 c0 -27 5 -50 10 -50 6 0 10 -4 10 -10 0 -5 -16 -10 -35
-10 -19 0 -35 5 -35 10 0 6 5 10 10 10 16 0 12 60 -5 66 -29 12 -12 29 33 33
8 1 12 -15 12 -49z m178 -7 c3 -44 0 -53 -18 -63 -17 -9 -26 -8 -46 4 -32 22
-40 58 -18 91 13 20 24 25 48 23 30 -3 31 -5 34 -55z m146 41 c6 -16 -20 -64
-35 -64 -5 0 -9 -4 -9 -10 0 -5 9 -10 19 -10 11 0 23 -4 26 -10 4 -6 -12 -10
-40 -10 -43 0 -46 1 -39 22 4 12 17 31 30 41 32 25 30 37 -7 37 -17 0 -28 4
-24 10 10 16 72 12 79 -6z m2816 -3 c17 21 19 21 13 4 -3 -11 -10 -26 -16 -33
-5 -6 -13 -27 -17 -45 l-8 -32 -1 35 c-1 19 -8 44 -16 54 -22 30 -17 45 5 17
l20 -23 20 23z"/>
<path d="M1835 2471 c-11 -5 -32 -21 -47 -36 -25 -25 -37 -50 -67 -146 -6 -20
-11 -102 -11 -184 0 -82 5 -164 11 -184 32 -101 45 -128 76 -157 53 -50 109
-53 168 -9 33 24 75 99 75 133 0 11 4 23 9 26 15 10 23 205 13 291 -18 144
-41 203 -96 246 -30 23 -99 34 -131 20z"/>
<path d="M3495 2268 c-4 -23 -11 -49 -16 -58 -11 -21 -59 -180 -59 -197 0 -10
23 -13 100 -13 111 0 113 2 86 63 -8 18 -24 66 -36 107 -12 41 -26 83 -31 92
-5 10 -9 25 -9 33 0 8 -6 15 -14 15 -9 0 -17 -16 -21 -42z"/>
<path d="M2906 1544 c-34 -33 -9 -94 38 -94 30 0 46 18 46 53 0 49 -52 74 -84
41z"/>
<path d="M920 1535 c0 -9 9 -15 25 -15 18 0 23 4 19 15 -4 8 -15 15 -25 15
-10 0 -19 -7 -19 -15z"/>
<path d="M920 1475 c0 -9 9 -15 25 -15 16 0 25 6 25 15 0 9 -9 15 -25 15 -16
0 -25 -6 -25 -15z"/>
<path d="M1700 1475 c0 -28 29 -35 49 -11 10 12 8 17 -8 25 -31 17 -41 13 -41
-14z"/>
<path d="M2611 1522 c-15 -28 -14 -32 9 -32 21 0 26 16 11 39 -7 11 -11 10
-20 -7z"/>
<path d="M3106 1552 c-3 -3 -6 -14 -6 -24 0 -24 43 -21 48 3 3 16 -31 33 -42
21z"/>
<path d="M3542 1528 c-17 -17 -15 -38 3 -38 9 0 15 9 15 25 0 29 -1 30 -18 13z"/>
<path d="M3860 1510 c0 -11 7 -20 15 -20 8 0 15 9 15 20 0 11 -7 20 -15 20 -8
0 -15 -9 -15 -20z"/>
<path d="M4156 1524 c-10 -26 -7 -34 15 -34 15 0 19 4 15 16 -3 9 -6 20 -6 25
0 15 -17 10 -24 -7z"/>
<path d="M4637 1543 c-11 -10 -8 -81 3 -88 6 -4 24 -4 40 0 27 6 30 11 30 45
0 25 -5 40 -16 44 -21 8 -49 8 -57 -1z"/>
<path d="M1315 1520 c-9 -27 3 -60 21 -60 10 0 14 12 14 40 0 43 -23 57 -35
20z"/>
</g>
</svg>
